  0
SECTION
  2
HEADER
  9
$ACADVER
  1
AC1018
  9
$ACADMAINTVER
 70
     0
  9
$DWGCODEPAGE
  3
ANSI_932
  9
$INSBASE
 10
0.0
 20
0.0
 30
0.0
  9
$EXTMIN
 10
1.000000000000000E+20
 20
1.000000000000000E+20
 30
1.000000000000000E+20
  9
$EXTMAX
 10
-1.000000000000000E+20
 20
-1.000000000000000E+20
 30
-1.000000000000000E+20
  9
$LIMMIN
 10
0.0
 20
0.0
  9
$LIMMAX
 10
12.0
 20
9.0
  9
$ORTHOMODE
 70
     0
  9
$REGENMODE
 70
     1
  9
$FILLMODE
 70
     1
  9
$QTEXTMODE
 70
     0
  9
$MIRRTEXT
 70
     1
  9
$LTSCALE
 40
1.0
  9
$ATTMODE
 70
     1
  9
$TEXTSIZE
 40
0.2
  9
$TRACEWID
 40
0.05
  9
$TEXTSTYLE
  7
Standard
  9
$CLAYER
  8
0
  9
$CELTYPE
  6
ByLayer
  9
$CECOLOR
 62
   256
  9
$CELTSCALE
 40
1.0
  9
$DISPSILH
 70
     0
  9
$DIMSCALE
 40
1.0
  9
$DIMASZ
 40
0.18
  9
$DIMEXO
 40
0.0625
  9
$DIMDLI
 40
0.38
  9
$DIMRND
 40
0.0
  9
$DIMDLE
 40
0.0
  9
$DIMEXE
 40
0.18
  9
$DIMTP
 40
0.0
  9
$DIMTM
 40
0.0
  9
$DIMTXT
 40
0.18
  9
$DIMCEN
 40
0.09
  9
$DIMTSZ
 40
0.0
  9
$DIMTOL
 70
     0
  9
$DIMLIM
 70
     0
  9
$DIMTIH
 70
     1
  9
$DIMTOH
 70
     1
  9
$DIMSE1
 70
     0
  9
$DIMSE2
 70
     0
  9
$DIMTAD
 70
     0
  9
$DIMZIN
 70
     0
  9
$DIMBLK
  1

  9
$DIMASO
 70
     1
  9
$DIMSHO
 70
     1
  9
$DIMPOST
  1

  9
$DIMAPOST
  1

  9
$DIMALT
 70
     0
  9
$DIMALTD
 70
     2
  9
$DIMALTF
 40
25.4
  9
$DIMLFAC
 40
1.0
  9
$DIMTOFL
 70
     0
  9
$DIMTVP
 40
0.0
  9
$DIMTIX
 70
     0
  9
$DIMSOXD
 70
     0
  9
$DIMSAH
 70
     0
  9
$DIMBLK1
  1

  9
$DIMBLK2
  1

  9
$DIMSTYLE
  2
Standard
  9
$DIMCLRD
 70
     0
  9
$DIMCLRE
 70
     0
  9
$DIMCLRT
 70
     0
  9
$DIMTFAC
 40
1.0
  9
$DIMGAP
 40
0.09
  9
$DIMJUST
 70
     0
  9
$DIMSD1
 70
     0
  9
$DIMSD2
 70
     0
  9
$DIMTOLJ
 70
     1
  9
$DIMTZIN
 70
     0
  9
$DIMALTZ
 70
     0
  9
$DIMALTTZ
 70
     0
  9
$DIMUPT
 70
     0
  9
$DIMDEC
 70
     4
  9
$DIMTDEC
 70
     4
  9
$DIMALTU
 70
     2
  9
$DIMALTTD
 70
     2
  9
$DIMTXSTY
  7
Standard
  9
$DIMAUNIT
 70
     0
  9
$DIMADEC
 70
     0
  9
$DIMALTRND
 40
0.0
  9
$DIMAZIN
 70
     0
  9
$DIMDSEP
 70
    46
  9
$DIMATFIT
 70
     3
  9
$DIMFRAC
 70
     0
  9
$DIMLDRBLK
  1

  9
$DIMLUNIT
 70
     2
  9
$DIMLWD
 70
    -2
  9
$DIMLWE
 70
    -2
  9
$DIMTMOVE
 70
     0
  9
$LUNITS
 70
     2
  9
$LUPREC
 70
     4
  9
$SKETCHINC
 40
0.1
  9
$FILLETRAD
 40
0.5
  9
$AUNITS
 70
     0
  9
$AUPREC
 70
     0
  9
$MENU
  1
.
  9
$ELEVATION
 40
0.0
  9
$PELEVATION
 40
0.0
  9
$THICKNESS
 40
0.0
  9
$LIMCHECK
 70
     0
  9
$CHAMFERA
 40
0.5
  9
$CHAMFERB
 40
0.5
  9
$CHAMFERC
 40
1.0
  9
$CHAMFERD
 40
0.0
  9
$SKPOLY
 70
     0
  9
$TDCREATE
 40
2458211.895720775
  9
$TDUCREATE
 40
2458211.520720775
  9
$TDUPDATE
 40
2458211.895720787
  9
$TDUUPDATE
 40
2458211.520720787
  9
$TDINDWG
 40
0.0000000116
  9
$TDUSRTIMER
 40
0.0000000116
  9
$USRTIMER
 70
     1
  9
$ANGBASE
 50
0.0
  9
$ANGDIR
 70
     0
  9
$PDMODE
 70
     0
  9
$PDSIZE
 40
0.0
  9
$PLINEWID
 40
0.0
  9
$SPLFRAME
 70
     0
  9
$SPLINETYPE
 70
     6
  9
$SPLINESEGS
 70
     8
  9
$HANDSEED
  5
4E
  9
$SURFTAB1
 70
     6
  9
$SURFTAB2
 70
     6
  9
$SURFTYPE
 70
     6
  9
$SURFU
 70
     6
  9
$SURFV
 70
     6
  9
$UCSBASE
  2

  9
$UCSNAME
  2

  9
$UCSORG
 10
0.0
 20
0.0
 30
0.0
  9
$UCSXDIR
 10
1.0
 20
0.0
 30
0.0
  9
$UCSYDIR
 10
0.0
 20
1.0
 30
0.0
  9
$UCSORTHOREF
  2

  9
$UCSORTHOVIEW
 70
     0
  9
$UCSORGTOP
 10
0.0
 20
0.0
 30
0.0
  9
$UCSORGBOTTOM
 10
0.0
 20
0.0
 30
0.0
  9
$UCSORGLEFT
 10
0.0
 20
0.0
 30
0.0
  9
$UCSORGRIGHT
 10
0.0
 20
0.0
 30
0.0
  9
$UCSORGFRONT
 10
0.0
 20
0.0
 30
0.0
  9
$UCSORGBACK
 10
0.0
 20
0.0
 30
0.0
  9
$PUCSBASE
  2

  9
$PUCSNAME
  2

  9
$PUCSORG
 10
0.0
 20
0.0
 30
0.0
  9
$PUCSXDIR
 10
1.0
 20
0.0
 30
0.0
  9
$PUCSYDIR
 10
0.0
 20
1.0
 30
0.0
  9
$PUCSORTHOREF
  2

  9
$PUCSORTHOVIEW
 70
     0
  9
$PUCSORGTOP
 10
0.0
 20
0.0
 30
0.0
  9
$PUCSORGBOTTOM
 10
0.0
 20
0.0
 30
0.0
  9
$PUCSORGLEFT
 10
0.0
 20
0.0
 30
0.0
  9
$PUCSORGRIGHT
 10
0.0
 20
0.0
 30
0.0
  9
$PUCSORGFRONT
 10
0.0
 20
0.0
 30
0.0
  9
$PUCSORGBACK
 10
0.0
 20
0.0
 30
0.0
  9
$USERI1
 70
     0
  9
$USERI2
 70
     0
  9
$USERI3
 70
     0
  9
$USERI4
 70
     0
  9
$USERI5
 70
     0
  9
$USERR1
 40
0.0
  9
$USERR2
 40
0.0
  9
$USERR3
 40
0.0
  9
$USERR4
 40
0.0
  9
$USERR5
 40
0.0
  9
$WORLDVIEW
 70
     1
  9
$SHADEDGE
 70
     3
  9
$SHADEDIF
 70
    70
  9
$TILEMODE
 70
     1
  9
$MAXACTVP
 70
    64
  9
$PINSBASE
 10
0.0
 20
0.0
 30
0.0
  9
$PLIMCHECK
 70
     0
  9
$PEXTMIN
 10
1.000000000000000E+20
 20
1.000000000000000E+20
 30
1.000000000000000E+20
  9
$PEXTMAX
 10
-1.000000000000000E+20
 20
-1.000000000000000E+20
 30
-1.000000000000000E+20
  9
$PLIMMIN
 10
0.0
 20
0.0
  9
$PLIMMAX
 10
12.0
 20
9.0
  9
$UNITMODE
 70
     0
  9
$VISRETAIN
 70
     1
  9
$PLINEGEN
 70
     0
  9
$PSLTSCALE
 70
     1
  9
$TREEDEPTH
 70
  3020
  9
$CMLSTYLE
  2
Standard
  9
$CMLJUST
 70
     0
  9
$CMLSCALE
 40
1.0
  9
$PROXYGRAPHICS
 70
     1
  9
$MEASUREMENT
 70
     0
  9
$CELWEIGHT
370
    -1
  9
$ENDCAPS
280
     0
  9
$JOINSTYLE
280
     0
  9
$LWDISPLAY
290
     1
  9
$INSUNITS
 70
     1
  9
$HYPERLINKBASE
  1

  9
$STYLESHEET
  1

  9
$XEDIT
290
     1
  9
$CEPSNTYPE
380
     0
  9
$PSTYLEMODE
290
     1
  9
$FINGERPRINTGUID
  2
{B2C1CCBC-F140-4EE9-89C5-C126878AC8FB}
  9
$VERSIONGUID
  2
{FAEB1C32-E019-11D5-929B-00C0DF256EC4}
  9
$EXTNAMES
290
     1
  9
$PSVPSCALE
 40
0.0
  9
$OLESTARTUP
290
     0
  9
$SORTENTS
280
   127
  9
$INDEXCTL
280
     0
  9
$HIDETEXT
280
     1
  9
$XCLIPFRAME
290
     0
  9
$HALOGAP
280
     0
  9
$OBSCOLOR
 70
   257
  9
$OBSLTYPE
280
     0
  9
$INTERSECTIONDISPLAY
280
     0
  9
$INTERSECTIONCOLOR
 70
   257
  9
$DIMASSOC
280
     2
  9
$PROJECTNAME
  1

  0
ENDSEC
  0
SECTION
  2
CLASSES
  0
CLASS
  1
ACDBDICTIONARYWDFLT
  2
AcDbDictionaryWithDefault
  3
ObjectDBX Classes
 90
        0
 91
        3
280
     0
281
     0
  0
CLASS
  1
VISUALSTYLE
  2
AcDbVisualStyle
  3
ObjectDBX Classes
 90
     4095
 91
        3
280
     0
281
     0
  0
ENDSEC
  0
SECTION
  2
TABLES
  0
TABLE
  2
VPORT
  5
8
330
0
100
AcDbSymbolTable
 70
     1
  0
VPORT
  5
29
330
8
100
AcDbSymbolTableRecord
100
AcDbViewportTableRecord
  2
*Active
 70
     0
 10
0.0
 20
0.0
 11
1.0
 21
1.0
 12
0.0
 22
0.0
 13
0.0
 23
0.0
 14
0.5
 24
0.5
 15
0.5
 25
0.5
 16
0.0
 26
0.0
 36
1.0
 17
315.000790950348
 27
-297.0001551649982
 37
0.0
 40
594.0003103299964
 41
1.060608169633277
 42
50.0
 43
0.0
 44
0.0
 50
0.0
 51
0.0
 71
     0
 72
   100
 73
     1
 74
     3
 75
     0
 76
     0
 77
     0
 78
     0
281
     0
 65
     1
110
0.0
120
0.0
130
0.0
111
1.0
121
0.0
131
0.0
112
0.0
122
1.0
132
0.0
 79
     0
146
0.0
  0
ENDTAB
  0
TABLE
  2
LTYPE
  5
5
330
0
100
AcDbSymbolTable
 70
     1
  0
LTYPE
  5
14
330
5
100
AcDbSymbolTableRecord
100
AcDbLinetypeTableRecord
  2
ByBlock
 70
     0
  3

 72
    65
 73
     0
 40
0.0
  0
LTYPE
  5
15
330
5
100
AcDbSymbolTableRecord
100
AcDbLinetypeTableRecord
  2
ByLayer
 70
     0
  3

 72
    65
 73
     0
 40
0.0
  0
LTYPE
  5
16
330
5
100
AcDbSymbolTableRecord
100
AcDbLinetypeTableRecord
  2
Continuous
 70
     0
  3
Solid line
 72
    65
 73
     0
 40
0.0
  0
ENDTAB
  0
TABLE
  2
LAYER
  5
2
330
0
100
AcDbSymbolTable
 70
     3
  0
LAYER
  5
10
330
2
100
AcDbSymbolTableRecord
100
AcDbLayerTableRecord
  2
0
 70
     0
 62
     7
  6
Continuous
370
    -3
390
F
  0
LAYER
  5
3B
330
2
100
AcDbSymbolTableRecord
100
AcDbLayerTableRecord
  2
\U+30AC\U+30A4\U+30C9
 70
     1
 62
     7
  6
Continuous
370
    -3
390
F
  0
LAYER
  5
3C
330
2
100
AcDbSymbolTableRecord
100
AcDbLayerTableRecord
  2
\U+30EC\U+30A4\U+30E4\U+30FC 1
 70
     0
 62
     7
  6
Continuous
370
    -3
390
F
  0
ENDTAB
  0
TABLE
  2
STYLE
  5
3
330
0
100
AcDbSymbolTable
 70
     1
  0
STYLE
  5
11
330
3
100
AcDbSymbolTableRecord
100
AcDbTextStyleTableRecord
  2
Standard
 70
     0
 40
0.0
 41
1.0
 50
0.0
 71
     0
 42
0.2
  3
txt
  4

  0
ENDTAB
  0
TABLE
  2
VIEW
  5
6
330
0
100
AcDbSymbolTable
 70
     0
  0
ENDTAB
  0
TABLE
  2
UCS
  5
7
330
0
100
AcDbSymbolTable
 70
     0
  0
ENDTAB
  0
TABLE
  2
APPID
  5
9
330
0
100
AcDbSymbolTable
 70
     1
  0
APPID
  5
12
330
9
100
AcDbSymbolTableRecord
100
AcDbRegAppTableRecord
  2
ACAD
 70
     0
  0
ENDTAB
  0
TABLE
  2
DIMSTYLE
  5
A
330
0
100
AcDbSymbolTable
 70
     1
100
AcDbDimStyleTable
  0
DIMSTYLE
105
27
330
A
100
AcDbSymbolTableRecord
100
AcDbDimStyleTableRecord
  2
Standard
 70
     0
340
11
  0
ENDTAB
  0
TABLE
  2
BLOCK_RECORD
  5
1
330
0
100
AcDbSymbolTable
 70
     1
  0
BLOCK_RECORD
  5
1F
330
1
100
AcDbSymbolTableRecord
100
AcDbBlockTableRecord
  2
*Model_Space
340
22
  0
BLOCK_RECORD
  5
1B
330
1
100
AcDbSymbolTableRecord
100
AcDbBlockTableRecord
  2
*Paper_Space
340
1E
  0
BLOCK_RECORD
  5
23
330
1
100
AcDbSymbolTableRecord
100
AcDbBlockTableRecord
  2
*Paper_Space0
340
26
  0
ENDTAB
  0
ENDSEC
  0
SECTION
  2
BLOCKS
  0
BLOCK
  5
20
330
1F
100
AcDbEntity
  8
0
100
AcDbBlockBegin
  2
*Model_Space
 70
     0
 71
     0
 10
0.0
 20
0.0
 30
0.0
  3
*Model_Space
  1

  0
ENDBLK
  5
21
330
1F
100
AcDbEntity
  8
0
100
AcDbBlockEnd
  0
BLOCK
  5
1C
330
1B
100
AcDbEntity
 67
     1
  8
0
100
AcDbBlockBegin
  2
*Paper_Space
 70
     0
 71
     0
 10
0.0
 20
0.0
 30
0.0
  3
*Paper_Space
  1

  0
ENDBLK
  5
1D
330
1B
100
AcDbEntity
 67
     1
  8
0
100
AcDbBlockEnd
  0
BLOCK
  5
24
330
23
100
AcDbEntity
  8
0
100
AcDbBlockBegin
  2
*Paper_Space0
 70
     0
 71
     0
 10
0.0
 20
0.0
 30
0.0
  3
*Paper_Space0
  1

  0
ENDBLK
  5
25
330
23
100
AcDbEntity
  8
0
100
AcDbBlockEnd
  0
ENDSEC
  0
SECTION
  2
ENTITIES
  0
SPLINE
  5
3D
330
1F
100
AcDbEntity
  8
\U+30EC\U+30A4\U+30E4\U+30FC 1
 62
   250
420
  3288107
370
    35
100
AcDbSpline
210
0.0
220
0.0
230
1.0
 70
    11
 71
     3
 72
    17
 73
    13
 74
     0
 42
0.0000000001
 43
0.0000000001
 40
0.0
 40
0.0
 40
0.0
 40
0.0
 40
1.0
 40
1.0
 40
1.0
 40
2.0
 40
2.0
 40
2.0
 40
3.0
 40
3.0
 40
3.0
 40
4.0
 40
4.0
 40
4.0
 40
4.0
 10
374.0776718136509
 20
-246.6676214309537
 30
0.0
 10
374.0776718136509
 20
-285.3274749414724
 30
0.0
 10
342.7376175094734
 20
-316.6675292456499
 30
0.0
 10
304.0775917440668
 20
-316.6675292456499
 30
0.0
 10
265.4175659786602
 20
-316.6675292456499
 30
0.0
 10
234.0775116744827
 20
-285.3274749414724
 30
0.0
 10
234.0775116744827
 20
-246.6676214309537
 30
0.0
 10
234.0775116744827
 20
-208.0075956655471
 30
0.0
 10
265.4175659786602
 20
-176.6675413613696
 30
0.0
 10
304.0775917440668
 20
-176.6675413613696
 30
0.0
 10
342.7376175094734
 20
-176.6675413613696
 30
0.0
 10
374.0776718136509
 20
-208.0075956655471
 30
0.0
 10
374.0776718136509
 20
-246.6676214309537
 30
0.0
  0
SPLINE
  5
3E
330
1F
100
AcDbEntity
  8
\U+30EC\U+30A4\U+30E4\U+30FC 1
 62
   250
420
  3288107
370
    35
100
AcDbSpline
210
0.0
220
0.0
230
1.0
 70
    11
 71
     3
 72
    65
 73
    61
 74
     0
 42
0.0000000001
 43
0.0000000001
 40
0.0
 40
0.0
 40
0.0
 40
0.0
 40
1.0
 40
1.0
 40
1.0
 40
2.0
 40
2.0
 40
2.0
 40
3.0
 40
3.0
 40
3.0
 40
4.0
 40
4.0
 40
4.0
 40
5.0
 40
5.0
 40
5.0
 40
6.0
 40
6.0
 40
6.0
 40
7.0
 40
7.0
 40
7.0
 40
8.0
 40
8.0
 40
8.0
 40
9.0
 40
9.0
 40
9.0
 40
10.0
 40
10.0
 40
10.0
 40
11.0
 40
11.0
 40
11.0
 40
12.0
 40
12.0
 40
12.0
 40
13.0
 40
13.0
 40
13.0
 40
14.0
 40
14.0
 40
14.0
 40
15.0
 40
15.0
 40
15.0
 40
16.0
 40
16.0
 40
16.0
 40
17.0
 40
17.0
 40
17.0
 40
18.0
 40
18.0
 40
18.0
 40
19.0
 40
19.0
 40
19.0
 40
20.0
 40
20.0
 40
20.0
 40
20.0
 10
344.7361187188669
 20
-292.982998924327
 30
0.0
 10
344.7361187188669
 20
-292.982998924327
 30
0.0
 10
346.5041428882529
 20
-294.7510230937129
 30
0.0
 10
346.5041428882529
 20
-294.7510230937129
 30
0.0
 10
346.5041428882529
 20
-294.7510230937129
 30
0.0
 10
352.160993406826
 20
-289.0941725751398
 30
0.0
 10
352.160993406826
 20
-289.0941725751398
 30
0.0
 10
352.160993406826
 20
-289.0941725751398
 30
0.0
 10
350.39296923744
 20
-287.3261484057539
 30
0.0
 10
350.39296923744
 20
-287.3261484057539
 30
0.0
 10
350.39296923744
 20
-287.3261484057539
 30
0.0
 10
351.1002478071496
 20
-286.6192143458201
 30
0.0
 10
351.1002478071496
 20
-286.6192143458201
 30
0.0
 10
351.1002478071496
 20
-286.6192143458201
 30
0.0
 10
350.39296923744
 20
-285.9119357761106
 30
0.0
 10
350.39296923744
 20
-285.9119357761106
 30
0.0
 10
350.39296923744
 20
-285.9119357761106
 30
0.0
 10
352.160993406826
 20
-284.1439116067247
 30
0.0
 10
352.160993406826
 20
-284.1439116067247
 30
0.0
 10
352.160993406826
 20
-284.1439116067247
 30
0.0
 10
346.5041428882529
 20
-278.4874055979274
 30
0.0
 10
346.5041428882529
 20
-278.4874055979274
 30
0.0
 10
346.5041428882529
 20
-278.4874055979274
 30
0.0
 10
344.7361187188669
 20
-280.2550852575375
 30
0.0
 10
344.7361187188669
 20
-280.2550852575375
 30
0.0
 10
344.7361187188669
 20
-280.2550852575375
 30
0.0
 10
344.0291846589332
 20
-279.547806687828
 30
0.0
 10
344.0291846589332
 20
-279.547806687828
 30
0.0
 10
344.0291846589332
 20
-279.547806687828
 30
0.0
 10
343.3219060892237
 20
-280.2550852575375
 30
0.0
 10
343.3219060892237
 20
-280.2550852575375
 30
0.0
 10
343.3219060892237
 20
-280.2550852575375
 30
0.0
 10
341.5542264296135
 20
-278.4874055979274
 30
0.0
 10
341.5542264296135
 20
-278.4874055979274
 30
0.0
 10
341.5542264296135
 20
-278.4874055979274
 30
0.0
 10
335.8973759110404
 20
-284.1439116067247
 30
0.0
 10
335.8973759110404
 20
-284.1439116067247
 30
0.0
 10
335.8973759110404
 20
-284.1439116067247
 30
0.0
 10
337.6650555706506
 20
-285.9119357761106
 30
0.0
 10
337.6650555706506
 20
-285.9119357761106
 30
0.0
 10
337.6650555706506
 20
-285.9119357761106
 30
0.0
 10
336.957777000941
 20
-286.6192143458201
 30
0.0
 10
336.957777000941
 20
-286.6192143458201
 30
0.0
 10
336.957777000941
 20
-286.6192143458201
 30
0.0
 10
337.6650555706506
 20
-287.3261484057539
 30
0.0
 10
337.6650555706506
 20
-287.3261484057539
 30
0.0
 10
337.6654000804264
 20
-287.3261484057539
 30
0.0
 10
335.8973759110404
 20
-289.093828065364
 30
0.0
 10
335.8973759110404
 20
-289.093828065364
 30
0.0
 10
335.8973759110404
 20
-289.093828065364
 30
0.0
 10
341.5542264296135
 20
-294.7506785839371
 30
0.0
 10
341.5542264296135
 20
-294.7506785839371
 30
0.0
 10
341.5542264296135
 20
-294.7506785839371
 30
0.0
 10
343.3222505989995
 20
-292.9826544145512
 30
0.0
 10
343.3219060892237
 20
-292.982998924327
 30
0.0
 10
343.3219060892237
 20
-292.982998924327
 30
0.0
 10
344.0291846589332
 20
-293.6902774940365
 30
0.0
 10
344.0291846589332
 20
-293.6902774940365
 30
0.0
 10
344.0291846589332
 20
-293.6902774940365
 30
0.0
 10
344.7361187188669
 20
-292.982998924327
 30
0.0
 10
344.7361187188669
 20
-292.982998924327
 30
0.0
  0
SPLINE
  5
3F
330
1F
100
AcDbEntity
  8
\U+30EC\U+30A4\U+30E4\U+30FC 1
 62
   250
420
  3288107
370
    35
100
AcDbSpline
210
0.0
220
0.0
230
1.0
 70
    11
 71
     3
 72
    65
 73
    61
 74
     0
 42
0.0000000001
 43
0.0000000001
 40
0.0
 40
0.0
 40
0.0
 40
0.0
 40
1.0
 40
1.0
 40
1.0
 40
2.0
 40
2.0
 40
2.0
 40
3.0
 40
3.0
 40
3.0
 40
4.0
 40
4.0
 40
4.0
 40
5.0
 40
5.0
 40
5.0
 40
6.0
 40
6.0
 40
6.0
 40
7.0
 40
7.0
 40
7.0
 40
8.0
 40
8.0
 40
8.0
 40
9.0
 40
9.0
 40
9.0
 40
10.0
 40
10.0
 40
10.0
 40
11.0
 40
11.0
 40
11.0
 40
12.0
 40
12.0
 40
12.0
 40
13.0
 40
13.0
 40
13.0
 40
14.0
 40
14.0
 40
14.0
 40
15.0
 40
15.0
 40
15.0
 40
16.0
 40
16.0
 40
16.0
 40
17.0
 40
17.0
 40
17.0
 40
18.0
 40
18.0
 40
18.0
 40
19.0
 40
19.0
 40
19.0
 40
20.0
 40
20.0
 40
20.0
 40
20.0
 10
344.7357742090911
 20
-213.0796408397062
 30
0.0
 10
344.7357742090911
 20
-213.0796408397062
 30
0.0
 10
346.5037983784771
 20
-214.8476650090922
 30
0.0
 10
346.5037983784771
 20
-214.8476650090922
 30
0.0
 10
346.5037983784771
 20
-214.8476650090922
 30
0.0
 10
352.1606488970502
 20
-209.190986745407
 30
0.0
 10
352.1606488970502
 20
-209.190986745407
 30
0.0
 10
352.1606488970502
 20
-209.190986745407
 30
0.0
 10
350.3926247276642
 20
-207.422962576021
 30
0.0
 10
350.3926247276642
 20
-207.422962576021
 30
0.0
 10
350.3926247276642
 20
-207.422962576021
 30
0.0
 10
351.0999032973738
 20
-206.7160285160873
 30
0.0
 10
351.0999032973738
 20
-206.7160285160873
 30
0.0
 10
351.0999032973738
 20
-206.7160285160873
 30
0.0
 10
350.3926247276642
 20
-206.0087499463777
 30
0.0
 10
350.3926247276642
 20
-206.0087499463777
 30
0.0
 10
350.3926247276642
 20
-206.0087499463777
 30
0.0
 10
352.1606488970502
 20
-204.2407257769918
 30
0.0
 10
352.1606488970502
 20
-204.2407257769918
 30
0.0
 10
352.1606488970502
 20
-204.2407257769918
 30
0.0
 10
346.5037983784771
 20
-198.5842197681945
 30
0.0
 10
346.5037983784771
 20
-198.5842197681945
 30
0.0
 10
346.5037983784771
 20
-198.5842197681945
 30
0.0
 10
344.7357742090911
 20
-200.3518994278047
 30
0.0
 10
344.7357742090911
 20
-200.3518994278047
 30
0.0
 10
344.7357742090911
 20
-200.3518994278047
 30
0.0
 10
344.0288401491574
 20
-199.6446208580951
 30
0.0
 10
344.0288401491574
 20
-199.6446208580951
 30
0.0
 10
344.0288401491574
 20
-199.6446208580951
 30
0.0
 10
343.3215615794479
 20
-200.3518994278047
 30
0.0
 10
343.3215615794479
 20
-200.3518994278047
 30
0.0
 10
343.3215615794479
 20
-200.3518994278047
 30
0.0
 10
341.5538819198377
 20
-198.5842197681945
 30
0.0
 10
341.5538819198377
 20
-198.5842197681945
 30
0.0
 10
341.5538819198377
 20
-198.5842197681945
 30
0.0
 10
335.8970314012646
 20
-204.2407257769918
 30
0.0
 10
335.8970314012646
 20
-204.2407257769918
 30
0.0
 10
335.8970314012646
 20
-204.2407257769918
 30
0.0
 10
337.6647110608748
 20
-206.0087499463777
 30
0.0
 10
337.6647110608748
 20
-206.0087499463777
 30
0.0
 10
337.6647110608748
 20
-206.0087499463777
 30
0.0
 10
336.9574324911652
 20
-206.7160285160873
 30
0.0
 10
336.9574324911652
 20
-206.7160285160873
 30
0.0
 10
336.9574324911652
 20
-206.7160285160873
 30
0.0
 10
337.6647110608748
 20
-207.422962576021
 30
0.0
 10
337.6647110608748
 20
-207.422962576021
 30
0.0
 10
337.6650555706506
 20
-207.422962576021
 30
0.0
 10
335.8970314012646
 20
-209.1906422356312
 30
0.0
 10
335.8970314012646
 20
-209.1906422356312
 30
0.0
 10
335.8970314012646
 20
-209.1906422356312
 30
0.0
 10
341.5538819198377
 20
-214.8476650090922
 30
0.0
 10
341.5538819198377
 20
-214.8476650090922
 30
0.0
 10
341.5538819198377
 20
-214.8476650090922
 30
0.0
 10
343.3219060892237
 20
-213.0796408397062
 30
0.0
 10
343.3215615794479
 20
-213.0796408397062
 30
0.0
 10
343.3215615794479
 20
-213.0796408397062
 30
0.0
 10
344.0288401491574
 20
-213.7872639191916
 30
0.0
 10
344.0288401491574
 20
-213.7872639191916
 30
0.0
 10
344.0288401491574
 20
-213.7872639191916
 30
0.0
 10
344.7357742090911
 20
-213.0796408397062
 30
0.0
 10
344.7357742090911
 20
-213.0796408397062
 30
0.0
  0
SPLINE
  5
40
330
1F
100
AcDbEntity
  8
\U+30EC\U+30A4\U+30E4\U+30FC 1
 62
   250
420
  3288107
370
    35
100
AcDbSpline
210
0.0
220
0.0
230
1.0
 70
    11
 71
     3
 72
    65
 73
    61
 74
     0
 42
0.0000000001
 43
0.0000000001
 40
0.0
 40
0.0
 40
0.0
 40
0.0
 40
1.0
 40
1.0
 40
1.0
 40
2.0
 40
2.0
 40
2.0
 40
3.0
 40
3.0
 40
3.0
 40
4.0
 40
4.0
 40
4.0
 40
5.0
 40
5.0
 40
5.0
 40
6.0
 40
6.0
 40
6.0
 40
7.0
 40
7.0
 40
7.0
 40
8.0
 40
8.0
 40
8.0
 40
9.0
 40
9.0
 40
9.0
 40
10.0
 40
10.0
 40
10.0
 40
11.0
 40
11.0
 40
11.0
 40
12.0
 40
12.0
 40
12.0
 40
13.0
 40
13.0
 40
13.0
 40
14.0
 40
14.0
 40
14.0
 40
15.0
 40
15.0
 40
15.0
 40
16.0
 40
16.0
 40
16.0
 40
17.0
 40
17.0
 40
17.0
 40
18.0
 40
18.0
 40
18.0
 40
19.0
 40
19.0
 40
19.0
 40
20.0
 40
20.0
 40
20.0
 40
20.0
 10
264.8329328891341
 20
-213.0801576043699
 30
0.0
 10
264.8329328891341
 20
-213.0801576043699
 30
0.0
 10
266.6009570585201
 20
-214.8481817737559
 30
0.0
 10
266.6009570585201
 20
-214.8481817737559
 30
0.0
 10
266.6009570585201
 20
-214.8481817737559
 30
0.0
 10
272.2578075770931
 20
-209.1913312551828
 30
0.0
 10
272.2578075770931
 20
-209.1913312551828
 30
0.0
 10
272.2578075770931
 20
-209.1913312551828
 30
0.0
 10
270.4897834077072
 20
-207.4233070857968
 30
0.0
 10
270.4897834077072
 20
-207.4233070857968
 30
0.0
 10
270.4897834077072
 20
-207.4233070857968
 30
0.0
 10
271.1970619774168
 20
-206.7163730258631
 30
0.0
 10
271.1970619774168
 20
-206.7163730258631
 30
0.0
 10
271.1970619774168
 20
-206.7163730258631
 30
0.0
 10
270.4897834077072
 20
-206.0090944561535
 30
0.0
 10
270.4897834077072
 20
-206.0090944561535
 30
0.0
 10
270.4897834077072
 20
-206.0090944561535
 30
0.0
 10
272.2578075770931
 20
-204.2410702867676
 30
0.0
 10
272.2578075770931
 20
-204.2410702867676
 30
0.0
 10
272.2578075770931
 20
-204.2410702867676
 30
0.0
 10
266.6009570585201
 20
-198.5845642779703
 30
0.0
 10
266.6009570585201
 20
-198.5845642779703
 30
0.0
 10
266.6009570585201
 20
-198.5845642779703
 30
0.0
 10
264.8329328891341
 20
-200.3522439375805
 30
0.0
 10
264.8329328891341
 20
-200.3522439375805
 30
0.0
 10
264.8329328891341
 20
-200.3522439375805
 30
0.0
 10
264.1259988292003
 20
-199.6449653678709
 30
0.0
 10
264.1259988292003
 20
-199.6449653678709
 30
0.0
 10
264.1259988292003
 20
-199.6449653678709
 30
0.0
 10
263.4187202594908
 20
-200.3522439375805
 30
0.0
 10
263.4187202594908
 20
-200.3522439375805
 30
0.0
 10
263.4187202594908
 20
-200.3522439375805
 30
0.0
 10
261.6510405998807
 20
-198.5845642779703
 30
0.0
 10
261.6510405998807
 20
-198.5845642779703
 30
0.0
 10
261.6510405998807
 20
-198.5845642779703
 30
0.0
 10
255.9941900813076
 20
-204.2410702867676
 30
0.0
 10
255.9941900813076
 20
-204.2410702867676
 30
0.0
 10
255.9941900813076
 20
-204.2410702867676
 30
0.0
 10
257.7618697409177
 20
-206.0090944561535
 30
0.0
 10
257.7618697409177
 20
-206.0090944561535
 30
0.0
 10
257.7618697409177
 20
-206.0090944561535
 30
0.0
 10
257.0545911712082
 20
-206.7163730258631
 30
0.0
 10
257.0545911712082
 20
-206.7163730258631
 30
0.0
 10
257.0545911712082
 20
-206.7163730258631
 30
0.0
 10
257.7618697409177
 20
-207.4233070857968
 30
0.0
 10
257.7618697409177
 20
-207.4233070857968
 30
0.0
 10
257.7622142506935
 20
-207.4233070857968
 30
0.0
 10
255.9941900813076
 20
-209.190986745407
 30
0.0
 10
255.9941900813076
 20
-209.190986745407
 30
0.0
 10
255.9941900813076
 20
-209.190986745407
 30
0.0
 10
261.6510405998807
 20
-214.8478372639801
 30
0.0
 10
261.6510405998807
 20
-214.8478372639801
 30
0.0
 10
261.6510405998807
 20
-214.8478372639801
 30
0.0
 10
263.4190647692666
 20
-213.0798130945941
 30
0.0
 10
263.4187202594908
 20
-213.0801576043699
 30
0.0
 10
263.4187202594908
 20
-213.0801576043699
 30
0.0
 10
264.1259988292003
 20
-213.7874361740795
 30
0.0
 10
264.1259988292003
 20
-213.7874361740795
 30
0.0
 10
264.1259988292003
 20
-213.7874361740795
 30
0.0
 10
264.8329328891341
 20
-213.0801576043699
 30
0.0
 10
264.8329328891341
 20
-213.0801576043699
 30
0.0
  0
SPLINE
  5
41
330
1F
100
AcDbEntity
  8
\U+30EC\U+30A4\U+30E4\U+30FC 1
 62
   250
420
  3288107
370
    35
100
AcDbSpline
210
0.0
220
0.0
230
1.0
 70
    11
 71
     3
 72
    65
 73
    61
 74
     0
 42
0.0000000001
 43
0.0000000001
 40
0.0
 40
0.0
 40
0.0
 40
0.0
 40
1.0
 40
1.0
 40
1.0
 40
2.0
 40
2.0
 40
2.0
 40
3.0
 40
3.0
 40
3.0
 40
4.0
 40
4.0
 40
4.0
 40
5.0
 40
5.0
 40
5.0
 40
6.0
 40
6.0
 40
6.0
 40
7.0
 40
7.0
 40
7.0
 40
8.0
 40
8.0
 40
8.0
 40
9.0
 40
9.0
 40
9.0
 40
10.0
 40
10.0
 40
10.0
 40
11.0
 40
11.0
 40
11.0
 40
12.0
 40
12.0
 40
12.0
 40
13.0
 40
13.0
 40
13.0
 40
14.0
 40
14.0
 40
14.0
 40
15.0
 40
15.0
 40
15.0
 40
16.0
 40
16.0
 40
16.0
 40
17.0
 40
17.0
 40
17.0
 40
18.0
 40
18.0
 40
18.0
 40
19.0
 40
19.0
 40
19.0
 40
20.0
 40
20.0
 40
20.0
 40
20.0
 10
264.8329328891341
 20
-292.9826544145512
 30
0.0
 10
264.8329328891341
 20
-292.9826544145512
 30
0.0
 10
266.6009570585201
 20
-294.7506785839371
 30
0.0
 10
266.6009570585201
 20
-294.7506785839371
 30
0.0
 10
266.6009570585201
 20
-294.7506785839371
 30
0.0
 10
272.2578075770931
 20
-289.093828065364
 30
0.0
 10
272.2578075770931
 20
-289.093828065364
 30
0.0
 10
272.2578075770931
 20
-289.093828065364
 30
0.0
 10
270.4897834077072
 20
-287.3258038959781
 30
0.0
 10
270.4897834077072
 20
-287.3258038959781
 30
0.0
 10
270.4897834077072
 20
-287.3258038959781
 30
0.0
 10
271.1970619774168
 20
-286.6188698360443
 30
0.0
 10
271.1970619774168
 20
-286.6188698360443
 30
0.0
 10
271.1970619774168
 20
-286.6188698360443
 30
0.0
 10
270.4897834077072
 20
-285.9115912663348
 30
0.0
 10
270.4897834077072
 20
-285.9115912663348
 30
0.0
 10
270.4897834077072
 20
-285.9115912663348
 30
0.0
 10
272.2578075770931
 20
-284.1435670969489
 30
0.0
 10
272.2578075770931
 20
-284.1435670969489
 30
0.0
 10
272.2578075770931
 20
-284.1435670969489
 30
0.0
 10
266.6009570585201
 20
-278.4870610881516
 30
0.0
 10
266.6009570585201
 20
-278.4870610881516
 30
0.0
 10
266.6009570585201
 20
-278.4870610881516
 30
0.0
 10
264.8329328891341
 20
-280.2547407477617
 30
0.0
 10
264.8329328891341
 20
-280.2547407477617
 30
0.0
 10
264.8329328891341
 20
-280.2547407477617
 30
0.0
 10
264.1259988292003
 20
-279.5474621780522
 30
0.0
 10
264.1259988292003
 20
-279.5474621780522
 30
0.0
 10
264.1259988292003
 20
-279.5474621780522
 30
0.0
 10
263.4187202594908
 20
-280.2547407477617
 30
0.0
 10
263.4187202594908
 20
-280.2547407477617
 30
0.0
 10
263.4187202594908
 20
-280.2547407477617
 30
0.0
 10
261.6510405998807
 20
-278.4870610881516
 30
0.0
 10
261.6510405998807
 20
-278.4870610881516
 30
0.0
 10
261.6510405998807
 20
-278.4870610881516
 30
0.0
 10
255.9941900813076
 20
-284.1435670969489
 30
0.0
 10
255.9941900813076
 20
-284.1435670969489
 30
0.0
 10
255.9941900813076
 20
-284.1435670969489
 30
0.0
 10
257.7618697409177
 20
-285.9115912663348
 30
0.0
 10
257.7618697409177
 20
-285.9115912663348
 30
0.0
 10
257.7618697409177
 20
-285.9115912663348
 30
0.0
 10
257.0545911712082
 20
-286.6188698360443
 30
0.0
 10
257.0545911712082
 20
-286.6188698360443
 30
0.0
 10
257.0545911712082
 20
-286.6188698360443
 30
0.0
 10
257.7618697409177
 20
-287.3258038959781
 30
0.0
 10
257.7618697409177
 20
-287.3258038959781
 30
0.0
 10
257.7622142506935
 20
-287.3258038959781
 30
0.0
 10
255.9941900813076
 20
-289.0934835555882
 30
0.0
 10
255.9941900813076
 20
-289.0934835555882
 30
0.0
 10
255.9941900813076
 20
-289.0934835555882
 30
0.0
 10
261.6510405998807
 20
-294.7503340741613
 30
0.0
 10
261.6510405998807
 20
-294.7503340741613
 30
0.0
 10
261.6510405998807
 20
-294.7503340741613
 30
0.0
 10
263.4190647692666
 20
-292.9823099047754
 30
0.0
 10
263.4187202594908
 20
-292.9826544145512
 30
0.0
 10
263.4187202594908
 20
-292.9826544145512
 30
0.0
 10
264.1259988292003
 20
-293.6899329842607
 30
0.0
 10
264.1259988292003
 20
-293.6899329842607
 30
0.0
 10
264.1259988292003
 20
-293.6899329842607
 30
0.0
 10
264.8329328891341
 20
-292.9826544145512
 30
0.0
 10
264.8329328891341
 20
-292.9826544145512
 30
0.0
  0
POLYLINE
  5
42
330
1F
100
AcDbEntity
  8
\U+30EC\U+30A4\U+30E4\U+30FC 1
 62
   250
420
  3288107
370
    35
100
AcDb2dPolyline
 66
     1
 10
0.0
 20
0.0
 30
0.0
  0
VERTEX
  5
43
330
42
100
AcDbEntity
  8
\U+30EC\U+30A4\U+30E4\U+30FC 1
 62
   250
420
  3288107
370
    35
100
AcDbVertex
100
AcDb2dVertex
 10
290.4777238347372
 20
-252.9175455285599
 30
0.0
  0
VERTEX
  5
44
330
42
100
AcDbEntity
  8
\U+30EC\U+30A4\U+30E4\U+30FC 1
 62
   250
420
  3288107
370
    35
100
AcDbVertex
100
AcDb2dVertex
 10
285.4776812037195
 20
-252.9175455285599
 30
0.0
  0
VERTEX
  5
45
330
42
100
AcDbEntity
  8
\U+30EC\U+30A4\U+30E4\U+30FC 1
 62
   250
420
  3288107
370
    35
100
AcDbVertex
100
AcDb2dVertex
 10
285.4776812037195
 20
-240.4175250784596
 30
0.0
  0
VERTEX
  5
46
330
42
100
AcDbEntity
  8
\U+30EC\U+30A4\U+30E4\U+30FC 1
 62
   250
420
  3288107
370
    35
100
AcDbVertex
100
AcDb2dVertex
 10
290.4777238347372
 20
-240.4175250784596
 30
0.0
  0
VERTEX
  5
47
330
42
100
AcDbEntity
  8
\U+30EC\U+30A4\U+30E4\U+30FC 1
 62
   250
420
  3288107
370
    35
100
AcDbVertex
100
AcDb2dVertex
 10
290.4777238347372
 20
-252.9175455285599
 30
0.0
  0
SEQEND
  5
48
330
42
100
AcDbEntity
  8
\U+30EC\U+30A4\U+30E4\U+30FC 1
370
    35
  0
SPLINE
  5
49
330
1F
100
AcDbEntity
  8
\U+30EC\U+30A4\U+30E4\U+30FC 1
 62
   250
420
  3288107
370
    35
100
AcDbSpline
210
0.0
220
0.0
230
1.0
 70
    11
 71
     3
 72
    23
 73
    19
 74
     0
 42
0.0000000001
 43
0.0000000001
 40
0.0
 40
0.0
 40
0.0
 40
0.0
 40
1.0
 40
1.0
 40
1.0
 40
2.0
 40
2.0
 40
2.0
 40
3.0
 40
3.0
 40
3.0
 40
4.0
 40
4.0
 40
4.0
 40
5.0
 40
5.0
 40
5.0
 40
6.0
 40
6.0
 40
6.0
 40
6.0
 10
286.7776888426864
 20
-228.9172719977198
 30
0.0
 10
285.9493150867845
 20
-228.9172719977198
 30
0.0
 10
285.2776932788698
 20
-229.5888938056344
 30
0.0
 10
285.2776932788698
 20
-230.4172675615363
 30
0.0
 10
285.2776932788698
 20
-231.2456413174382
 30
0.0
 10
285.9493150867845
 20
-231.9172631253528
 30
0.0
 10
286.7776888426864
 20
-231.9172631253528
 30
0.0
 10
286.7776888426864
 20
-231.9172631253528
 30
0.0
 10
289.1777161957704
 20
-231.9172631253528
 30
0.0
 10
289.1777161957704
 20
-231.9172631253528
 30
0.0
 10
290.0060899516723
 20
-231.9172631253528
 30
0.0
 10
290.6777117595869
 20
-231.2456413174382
 30
0.0
 10
290.6777117595869
 20
-230.4172675615363
 30
0.0
 10
290.6777117595869
 20
-229.5888938056344
 30
0.0
 10
290.0060899516723
 20
-228.9172719977198
 30
0.0
 10
289.1777161957704
 20
-228.9172719977198
 30
0.0
 10
289.1777161957704
 20
-228.9172719977198
 30
0.0
 10
286.7776888426864
 20
-228.9172719977198
 30
0.0
 10
286.7776888426864
 20
-228.9172719977198
 30
0.0
  0
SPLINE
  5
4A
330
1F
100
AcDbEntity
  8
\U+30EC\U+30A4\U+30E4\U+30FC 1
 62
   250
420
  3288107
370
    35
100
AcDbSpline
210
0.0
220
0.0
230
1.0
 70
    11
 71
     3
 72
    23
 73
    19
 74
     0
 42
0.0000000001
 43
0.0000000001
 40
0.0
 40
0.0
 40
0.0
 40
0.0
 40
1.0
 40
1.0
 40
1.0
 40
2.0
 40
2.0
 40
2.0
 40
3.0
 40
3.0
 40
3.0
 40
4.0
 40
4.0
 40
4.0
 40
5.0
 40
5.0
 40
5.0
 40
6.0
 40
6.0
 40
6.0
 40
6.0
 10
286.7776888426864
 20
-261.417290717003
 30
0.0
 10
285.9493150867845
 20
-261.417290717003
 30
0.0
 10
285.2776932788698
 20
-262.0889125249176
 30
0.0
 10
285.2776932788698
 20
-262.9172862808195
 30
0.0
 10
285.2776932788698
 20
-263.7456600367214
 30
0.0
 10
285.9493150867845
 20
-264.417281844636
 30
0.0
 10
286.7776888426864
 20
-264.417281844636
 30
0.0
 10
286.7776888426864
 20
-264.417281844636
 30
0.0
 10
289.1777161957704
 20
-264.417281844636
 30
0.0
 10
289.1777161957704
 20
-264.417281844636
 30
0.0
 10
290.0060899516723
 20
-264.417281844636
 30
0.0
 10
290.6777117595869
 20
-263.7456600367214
 30
0.0
 10
290.6777117595869
 20
-262.9172862808195
 30
0.0
 10
290.6777117595869
 20
-262.0889125249176
 30
0.0
 10
290.0060899516723
 20
-261.417290717003
 30
0.0
 10
289.1777161957704
 20
-261.417290717003
 30
0.0
 10
289.1777161957704
 20
-261.417290717003
 30
0.0
 10
286.7776888426864
 20
-261.417290717003
 30
0.0
 10
286.7776888426864
 20
-261.417290717003
 30
0.0
  0
SPLINE
  5
4B
330
1F
100
AcDbEntity
  8
\U+30EC\U+30A4\U+30E4\U+30FC 1
 62
   250
420
  3288107
370
    35
100
AcDbSpline
210
0.0
220
0.0
230
1.0
 70
    11
 71
     3
 72
    23
 73
    19
 74
     0
 42
0.0000000001
 43
0.0000000001
 40
0.0
 40
0.0
 40
0.0
 40
0.0
 40
1.0
 40
1.0
 40
1.0
 40
2.0
 40
2.0
 40
2.0
 40
3.0
 40
3.0
 40
3.0
 40
4.0
 40
4.0
 40
4.0
 40
5.0
 40
5.0
 40
5.0
 40
6.0
 40
6.0
 40
6.0
 40
6.0
 10
259.6776886041202
 20
-245.1672813573614
 30
0.0
 10
258.8493148482183
 20
-245.1672813573614
 30
0.0
 10
258.1776930403037
 20
-245.838903165276
 30
0.0
 10
258.1776930403037
 20
-246.6672769211779
 30
0.0
 10
258.1776930403037
 20
-247.4956506770798
 30
0.0
 10
258.8493148482183
 20
-248.1672724849944
 30
0.0
 10
259.6776886041202
 20
-248.1672724849944
 30
0.0
 10
259.6776886041202
 20
-248.1672724849944
 30
0.0
 10
262.0777159572042
 20
-248.1672724849944
 30
0.0
 10
262.0777159572042
 20
-248.1672724849944
 30
0.0
 10
262.9060897131062
 20
-248.1672724849944
 30
0.0
 10
263.5777115210208
 20
-247.4956506770798
 30
0.0
 10
263.5777115210208
 20
-246.6672769211779
 30
0.0
 10
263.5777115210208
 20
-245.838903165276
 30
0.0
 10
262.9060897131062
 20
-245.1672813573614
 30
0.0
 10
262.0777159572042
 20
-245.1672813573614
 30
0.0
 10
262.0777159572042
 20
-245.1672813573614
 30
0.0
 10
259.6776886041202
 20
-245.1672813573614
 30
0.0
 10
259.6776886041202
 20
-245.1672813573614
 30
0.0
  0
SPLINE
  5
4C
330
1F
100
AcDbEntity
  8
\U+30EC\U+30A4\U+30E4\U+30FC 1
 62
   250
420
  3288107
370
    35
100
AcDbSpline
210
0.0
220
0.0
230
1.0
 70
    11
 71
     3
 72
    65
 73
    61
 74
     0
 42
0.0000000001
 43
0.0000000001
 40
0.0
 40
0.0
 40
0.0
 40
0.0
 40
1.0
 40
1.0
 40
1.0
 40
2.0
 40
2.0
 40
2.0
 40
3.0
 40
3.0
 40
3.0
 40
4.0
 40
4.0
 40
4.0
 40
5.0
 40
5.0
 40
5.0
 40
6.0
 40
6.0
 40
6.0
 40
7.0
 40
7.0
 40
7.0
 40
8.0
 40
8.0
 40
8.0
 40
9.0
 40
9.0
 40
9.0
 40
10.0
 40
10.0
 40
10.0
 40
11.0
 40
11.0
 40
11.0
 40
12.0
 40
12.0
 40
12.0
 40
13.0
 40
13.0
 40
13.0
 40
14.0
 40
14.0
 40
14.0
 40
15.0
 40
15.0
 40
15.0
 40
16.0
 40
16.0
 40
16.0
 40
17.0
 40
17.0
 40
17.0
 40
18.0
 40
18.0
 40
18.0
 40
19.0
 40
19.0
 40
19.0
 40
20.0
 40
20.0
 40
20.0
 40
20.0
 10
321.8275966675249
 20
-249.1675566190186
 30
0.0
 10
321.8275966675249
 20
-249.1675566190186
 30
0.0
 10
321.8275966675249
 20
-244.1675139880009
 30
0.0
 10
321.8275966675249
 20
-244.1675139880009
 30
0.0
 10
321.8272521577491
 20
-244.1676862428888
 30
0.0
 10
319.3274892245721
 20
-244.1676862428888
 30
0.0
 10
319.3274892245721
 20
-244.1676862428888
 30
0.0
 10
319.3274892245721
 20
-244.1676862428888
 30
0.0
 10
319.3274892245721
 20
-242.4179210916201
 30
0.0
 10
319.3274892245721
 20
-242.4179210916201
 30
0.0
 10
319.3274892245721
 20
-242.4179210916201
 30
0.0
 10
317.5773795635275
 20
-242.4177488367322
 30
0.0
 10
317.5773795635275
 20
-242.4177488367322
 30
0.0
 10
317.5773795635275
 20
-242.4177488367322
 30
0.0
 10
317.5773795635275
 20
-239.9176413937794
 30
0.0
 10
317.5773795635275
 20
-239.9176413937794
 30
0.0
 10
317.5773795635275
 20
-239.9176413937794
 30
0.0
 10
312.5776814422857
 20
-239.9174691388915
 30
0.0
 10
312.5776814422857
 20
-239.9174691388915
 30
0.0
 10
312.5776814422857
 20
-239.9174691388915
 30
0.0
 10
312.5776814422857
 20
-242.4174043269564
 30
0.0
 10
312.5776814422857
 20
-242.4174043269564
 30
0.0
 10
312.5776814422857
 20
-242.4174043269564
 30
0.0
 10
310.827744036129
 20
-242.4174043269564
 30
0.0
 10
310.827744036129
 20
-242.4174043269564
 30
0.0
 10
310.827744036129
 20
-242.4174043269564
 30
0.0
 10
310.827744036129
 20
-244.1676862428888
 30
0.0
 10
310.827744036129
 20
-244.1676862428888
 30
0.0
 10
310.827744036129
 20
-244.1676862428888
 30
0.0
 10
308.3276365931762
 20
-244.1675139880009
 30
0.0
 10
308.3276365931762
 20
-244.1675139880009
 30
0.0
 10
308.3276365931762
 20
-244.1675139880009
 30
0.0
 10
308.3276365931762
 20
-249.1675566190186
 30
0.0
 10
308.3276365931762
 20
-249.1675566190186
 30
0.0
 10
308.3276365931762
 20
-249.1675566190186
 30
0.0
 10
310.8273995263532
 20
-249.1673843641307
 30
0.0
 10
310.8273995263532
 20
-249.1673843641307
 30
0.0
 10
310.8273995263532
 20
-249.1673843641307
 30
0.0
 10
310.8273995263532
 20
-250.9171495153994
 30
0.0
 10
310.8273995263532
 20
-250.9171495153994
 30
0.0
 10
310.827744036129
 20
-250.9171495153994
 30
0.0
 10
312.5778536971736
 20
-250.9171495153994
 30
0.0
 10
312.5778536971736
 20
-250.9171495153994
 30
0.0
 10
312.5775091873978
 20
-250.9171495153994
 30
0.0
 10
312.5775091873978
 20
-253.4172569583523
 30
0.0
 10
312.5775091873978
 20
-253.4172569583523
 30
0.0
 10
312.5775091873978
 20
-253.4172569583523
 30
0.0
 10
317.5773795635275
 20
-253.4174292132402
 30
0.0
 10
317.5773795635275
 20
-253.4174292132402
 30
0.0
 10
317.5773795635275
 20
-253.4174292132402
 30
0.0
 10
317.5773795635275
 20
-250.9174940251752
 30
0.0
 10
317.5773795635275
 20
-250.9174940251752
 30
0.0
 10
317.5777240733033
 20
-250.9174940251752
 30
0.0
 10
319.3274892245721
 20
-250.9174940251752
 30
0.0
 10
319.3274892245721
 20
-250.9174940251752
 30
0.0
 10
319.3274892245721
 20
-250.9173217702873
 30
0.0
 10
319.3274892245721
 20
-249.1672121092428
 30
0.0
 10
319.3274892245721
 20
-249.1672121092428
 30
0.0
 10
319.3274892245721
 20
-249.1673843641307
 30
0.0
 10
321.8275966675249
 20
-249.1673843641307
 30
0.0
 10
321.8275966675249
 20
-249.1675566190186
 30
0.0
  0
ENDSEC
  0
SECTION
  2
OBJECTS
  0
DICTIONARY
  5
C
330
0
100
AcDbDictionary
281
     1
  3
ACAD_GROUP
350
D
  3
ACAD_LAYOUT
350
1A
  3
ACAD_MLINESTYLE
350
17
  3
ACAD_PLOTSETTINGS
350
19
  3
ACAD_PLOTSTYLENAME
350
E
  3
ACAD_TABLESTYLE
350
4D
  3
ACAD_VISUALSTYLE
350
2A
  0
DICTIONARY
  5
D
102
{ACAD_REACTORS
330
C
102
}
330
C
100
AcDbDictionary
281
     1
  0
DICTIONARY
  5
1A
102
{ACAD_REACTORS
330
C
102
}
330
C
100
AcDbDictionary
281
     1
  3
Layout1
350
1E
  3
Layout2
350
26
  3
Model
350
22
  0
DICTIONARY
  5
17
102
{ACAD_REACTORS
330
C
102
}
330
C
100
AcDbDictionary
281
     1
  3
Standard
350
18
  0
DICTIONARY
  5
19
102
{ACAD_REACTORS
330
C
102
}
330
C
100
AcDbDictionary
281
     1
  0
ACDBDICTIONARYWDFLT
  5
E
102
{ACAD_REACTORS
330
C
102
}
330
C
100
AcDbDictionary
281
     1
  3
Normal
350
F
100
AcDbDictionaryWithDefault
340
F
  0
DICTIONARY
  5
4D
102
{ACAD_REACTORS
330
C
102
}
330
C
100
AcDbDictionary
281
     1
  0
DICTIONARY
  5
2A
102
{ACAD_REACTORS
330
C
102
}
330
C
100
AcDbDictionary
281
     1
  3
2dWireframe
350
2F
  3
3D Hidden
350
31
  3
3dWireframe
350
30
  3
Basic
350
32
  3
Brighten
350
36
  3
ColorChange
350
3A
  3
Conceptual
350
34
  3
Dim
350
35
  3
Facepattern
350
39
  3
Flat
350
2B
  3
FlatWithEdges
350
2C
  3
Gouraud
350
2D
  3
GouraudWithEdges
350
2E
  3
Linepattern
350
38
  3
Realistic
350
33
  3
Thicken
350
37
  0
LAYOUT
  5
1E
102
{ACAD_REACTORS
330
1A
102
}
330
1A
100
AcDbPlotSettings
  1

  2
none_device
  4

  6

 40
0.0
 41
0.0
 42
0.0
 43
0.0
 44
0.0
 45
0.0
 46
0.0
 47
0.0
 48
0.0
 49
0.0
140
0.0
141
0.0
142
1.0
143
1.0
 70
   688
 72
     0
 73
     0
 74
     5
  7

 75
    16
 76
     0
 77
     2
 78
   300
147
1.0
148
0.0
149
0.0
100
AcDbLayout
  1
Layout1
 70
     1
 71
     1
 10
0.0
 20
0.0
 11
12.0
 21
9.0
 12
0.0
 22
0.0
 32
0.0
 14
1.000000000000000E+20
 24
1.000000000000000E+20
 34
1.000000000000000E+20
 15
-1.000000000000000E+20
 25
-1.000000000000000E+20
 35
-1.000000000000000E+20
146
0.0
 13
0.0
 23
0.0
 33
0.0
 16
1.0
 26
0.0
 36
0.0
 17
0.0
 27
1.0
 37
0.0
 76
     0
330
1B
  0
LAYOUT
  5
26
102
{ACAD_REACTORS
330
1A
102
}
330
1A
100
AcDbPlotSettings
  1

  2
none_device
  4

  6

 40
0.0
 41
0.0
 42
0.0
 43
0.0
 44
0.0
 45
0.0
 46
0.0
 47
0.0
 48
0.0
 49
0.0
140
0.0
141
0.0
142
1.0
143
1.0
 70
   688
 72
     0
 73
     0
 74
     5
  7

 75
    16
 76
     0
 77
     2
 78
   300
147
1.0
148
0.0
149
0.0
100
AcDbLayout
  1
Layout2
 70
     1
 71
     2
 10
0.0
 20
0.0
 11
0.0
 21
0.0
 12
0.0
 22
0.0
 32
0.0
 14
0.0
 24
0.0
 34
0.0
 15
0.0
 25
0.0
 35
0.0
146
0.0
 13
0.0
 23
0.0
 33
0.0
 16
1.0
 26
0.0
 36
0.0
 17
0.0
 27
1.0
 37
0.0
 76
     0
330
23
  0
LAYOUT
  5
22
102
{ACAD_REACTORS
330
1A
102
}
330
1A
100
AcDbPlotSettings
  1

  2
none_device
  4

  6

 40
0.0
 41
0.0
 42
0.0
 43
0.0
 44
0.0
 45
0.0
 46
0.0
 47
0.0
 48
0.0
 49
0.0
140
0.0
141
0.0
142
1.0
143
1.0
 70
  1712
 72
     0
 73
     0
 74
     0
  7

 75
     0
 76
     0
 77
     2
 78
   300
147
1.0
148
0.0
149
0.0
100
AcDbLayout
  1
Model
 70
     1
 71
     0
 10
0.0
 20
0.0
 11
12.0
 21
9.0
 12
0.0
 22
0.0
 32
0.0
 14
1.000000000000000E+20
 24
1.000000000000000E+20
 34
1.000000000000000E+20
 15
-1.000000000000000E+20
 25
-1.000000000000000E+20
 35
-1.000000000000000E+20
146
0.0
 13
0.0
 23
0.0
 33
0.0
 16
1.0
 26
0.0
 36
0.0
 17
0.0
 27
1.0
 37
0.0
 76
     0
330
1F
331
29
  0
MLINESTYLE
  5
18
102
{ACAD_REACTORS
330
17
102
}
330
17
100
AcDbMlineStyle
  2
Standard
 70
     0
  3

 62
   256
 51
90.0
 52
90.0
 71
     2
 49
0.5
 62
   256
  6
BYLAYER
 49
-0.5
 62
   256
  6
BYLAYER
  0
ACDBPLACEHOLDER
  5
F
102
{ACAD_REACTORS
330
E
102
}
330
E
  0
VISUALSTYLE
  5
2F
102
{ACAD_REACTORS
330
2A
102
}
330
2A
100
AcDbVisualStyle
  2
2dWireframe
 70
     4
 71
     0
 72
     2
 73
     0
 90
        0
 40
-0.6
 41
-30.0
 62
     5
 63
     7
421
 16777215
 74
     1
 91
        4
 64
     7
 65
   257
 75
     1
175
     1
 42
1.0
 92
        0
 66
   257
 43
1.0
 76
     1
 77
     6
 78
     2
 67
     7
 79
     5
170
     0
171
     0
290
     0
174
     0
 93
        1
 44
0.0
173
     0
291
     0
 45
0.0
1001
ACAD
1000
AcDbSavedByObjectVersion
1070
     0
  0
VISUALSTYLE
  5
31
102
{ACAD_REACTORS
330
2A
102
}
330
2A
100
AcDbVisualStyle
  2
3D Hidden
 70
     6
 71
     1
 72
     2
 73
     2
 90
        0
 40
-0.6
 41
-30.0
 62
     5
 63
     7
421
 16777215
 74
     2
 91
        2
 64
     7
 65
   257
 75
     2
175
     1
 42
40.0
 92
        0
 66
   257
 43
1.0
 76
     1
 77
     6
 78
     2
 67
     7
 79
     3
170
     0
171
     0
290
     0
174
     0
 93
        1
 44
0.0
173
     0
291
     0
 45
0.0
1001
ACAD
1000
AcDbSavedByObjectVersion
1070
     0
  0
VISUALSTYLE
  5
30
102
{ACAD_REACTORS
330
2A
102
}
330
2A
100
AcDbVisualStyle
  2
3dWireframe
 70
     5
 71
     0
 72
     2
 73
     0
 90
        0
 40
-0.6
 41
-30.0
 62
     5
 63
     7
421
 16777215
 74
     1
 91
        4
 64
     7
 65
   257
 75
     1
175
     1
 42
1.0
 92
        0
 66
   257
 43
1.0
 76
     1
 77
     6
 78
     2
 67
     7
 79
     5
170
     0
171
     0
290
     0
174
     0
 93
        1
 44
0.0
173
     0
291
     0
 45
0.0
1001
ACAD
1000
AcDbSavedByObjectVersion
1070
     0
  0
VISUALSTYLE
  5
32
102
{ACAD_REACTORS
330
2A
102
}
330
2A
100
AcDbVisualStyle
  2
Basic
 70
     7
 71
     1
 72
     0
 73
     1
 90
        0
 40
-0.6
 41
-30.0
 62
     5
 63
     7
421
 16777215
 74
     0
 91
        4
 64
     7
 65
   257
 75
     1
175
     1
 42
1.0
 92
        8
 66
     7
 43
1.0
 76
     1
 77
     6
 78
     2
 67
     7
 79
     5
170
     0
171
     0
290
     0
174
     0
 93
        1
 44
0.0
173
     0
291
     1
 45
0.0
1001
ACAD
1000
AcDbSavedByObjectVersion
1070
     0
  0
VISUALSTYLE
  5
36
102
{ACAD_REACTORS
330
2A
102
}
330
2A
100
AcDbVisualStyle
  2
Brighten
 70
    12
 71
     2
 72
     2
 73
     0
 90
        0
 40
-0.6
 41
-30.0
 62
     5
 63
     7
421
 16777215
 74
     1
 91
        4
 64
     7
 65
   257
 75
     1
175
     1
 42
1.0
 92
        8
 66
     7
 43
1.0
 76
     1
 77
     6
 78
     2
 67
     7
 79
     5
170
     0
171
     0
290
     0
174
     0
 93
        1
 44
50.0
173
     0
291
     1
 45
0.0
1001
ACAD
1000
AcDbSavedByObjectVersion
1070
     0
  0
VISUALSTYLE
  5
3A
102
{ACAD_REACTORS
330
2A
102
}
330
2A
100
AcDbVisualStyle
  2
ColorChange
 70
    16
 71
     2
 72
     2
 73
     3
 90
        0
 40
-0.6
 41
-30.0
 62
     5
 63
     8
421
  8421504
 74
     1
 91
        4
 64
     7
 65
   257
 75
     1
175
     1
 42
1.0
 92
        8
 66
     8
424
  8421504
 43
1.0
 76
     1
 77
     6
 78
     2
 67
     7
 79
     5
170
     0
171
     0
290
     0
174
     0
 93
        1
 44
0.0
173
     0
291
     1
 45
0.0
1001
ACAD
1000
AcDbSavedByObjectVersion
1070
     0
  0
VISUALSTYLE
  5
34
102
{ACAD_REACTORS
330
2A
102
}
330
2A
100
AcDbVisualStyle
  2
Conceptual
 70
     9
 71
     3
 72
     2
 73
     0
 90
        0
 40
-0.6
 41
-30.0
 62
     5
 63
     7
421
 16777215
 74
     2
 91
        2
 64
     7
 65
   257
 75
     1
175
     1
 42
40.0
 92
        8
 66
     7
 43
1.0
 76
     1
 77
     6
 78
     2
 67
     7
 79
     3
170
     0
171
     0
290
     0
174
     0
 93
        1
 44
0.0
173
     0
291
     0
 45
0.0
1001
ACAD
1000
AcDbSavedByObjectVersion
1070
     0
  0
VISUALSTYLE
  5
35
102
{ACAD_REACTORS
330
2A
102
}
330
2A
100
AcDbVisualStyle
  2
Dim
 70
    11
 71
     2
 72
     2
 73
     0
 90
        0
 40
-0.6
 41
-30.0
 62
     5
 63
     7
421
 16777215
 74
     1
 91
        4
 64
     7
 65
   257
 75
     1
175
     1
 42
1.0
 92
        8
 66
     7
 43
1.0
 76
     1
 77
     6
 78
     2
 67
     7
 79
     5
170
     0
171
     0
290
     0
174
     0
 93
        1
 44
-50.0
173
     0
291
     1
 45
0.0
1001
ACAD
1000
AcDbSavedByObjectVersion
1070
     0
  0
VISUALSTYLE
  5
39
102
{ACAD_REACTORS
330
2A
102
}
330
2A
100
AcDbVisualStyle
  2
Facepattern
 70
    15
 71
     2
 72
     2
 73
     0
 90
        0
 40
-0.6
 41
-30.0
 62
     5
 63
     7
421
 16777215
 74
     1
 91
        4
 64
     7
 65
   257
 75
     1
175
     1
 42
1.0
 92
        8
 66
     7
 43
1.0
 76
     1
 77
     6
 78
     2
 67
     7
 79
     5
170
     0
171
     0
290
     0
174
     0
 93
        1
 44
0.0
173
     0
291
     1
 45
0.0
1001
ACAD
1000
AcDbSavedByObjectVersion
1070
     0
  0
VISUALSTYLE
  5
2B
102
{ACAD_REACTORS
330
2A
102
}
330
2A
100
AcDbVisualStyle
  2
Flat
 70
     0
 71
     2
 72
     1
 73
     1
 90
        2
 40
-0.6
 41
30.0
 62
     5
 63
     7
421
 16777215
 74
     0
 91
        4
 64
     7
 65
   257
 75
     1
175
     1
 42
1.0
 92
        8
 66
     7
 43
1.0
 76
     1
 77
     6
 78
     2
 67
     7
 79
     5
170
     0
171
     0
290
     0
174
     0
 93
       13
 44
0.0
173
     0
291
     1
 45
0.0
1001
ACAD
1000
AcDbSavedByObjectVersion
1070
     0
  0
VISUALSTYLE
  5
2C
102
{ACAD_REACTORS
330
2A
102
}
330
2A
100
AcDbVisualStyle
  2
FlatWithEdges
 70
     1
 71
     2
 72
     1
 73
     1
 90
        2
 40
-0.6
 41
30.0
 62
     5
 63
     7
421
 16777215
 74
     1
 91
        4
 64
     7
 65
   257
 75
     1
175
     1
 42
1.0
 92
        0
 66
   257
 43
1.0
 76
     1
 77
     6
 78
     2
 67
     7
 79
     5
170
     0
171
     0
290
     0
174
     0
 93
       13
 44
0.0
173
     0
291
     1
 45
0.0
1001
ACAD
1000
AcDbSavedByObjectVersion
1070
     0
  0
VISUALSTYLE
  5
2D
102
{ACAD_REACTORS
330
2A
102
}
330
2A
100
AcDbVisualStyle
  2
Gouraud
 70
     2
 71
     2
 72
     2
 73
     1
 90
        2
 40
-0.6
 41
30.0
 62
     5
 63
     7
421
 16777215
 74
     0
 91
        4
 64
     7
 65
   257
 75
     1
175
     1
 42
1.0
 92
        0
 66
     7
 43
1.0
 76
     1
 77
     6
 78
     2
 67
     7
 79
     5
170
     0
171
     0
290
     0
174
     0
 93
       13
 44
0.0
173
     0
291
     1
 45
0.0
1001
ACAD
1000
AcDbSavedByObjectVersion
1070
     0
  0
VISUALSTYLE
  5
2E
102
{ACAD_REACTORS
330
2A
102
}
330
2A
100
AcDbVisualStyle
  2
GouraudWithEdges
 70
     3
 71
     2
 72
     2
 73
     1
 90
        2
 40
-0.6
 41
30.0
 62
     5
 63
     7
421
 16777215
 74
     1
 91
        4
 64
     7
 65
   257
 75
     1
175
     1
 42
1.0
 92
        0
 66
   257
 43
1.0
 76
     1
 77
     6
 78
     2
 67
     7
 79
     5
170
     0
171
     0
290
     0
174
     0
 93
       13
 44
0.0
173
     0
291
     1
 45
0.0
1001
ACAD
1000
AcDbSavedByObjectVersion
1070
     0
  0
VISUALSTYLE
  5
38
102
{ACAD_REACTORS
330
2A
102
}
330
2A
100
AcDbVisualStyle
  2
Linepattern
 70
    14
 71
     2
 72
     2
 73
     0
 90
        0
 40
-0.6
 41
-30.0
 62
     5
 63
     7
421
 16777215
 74
     1
 91
        4
 64
     7
 65
   257
 75
     7
175
     7
 42
1.0
 92
        8
 66
     7
 43
1.0
 76
     1
 77
     6
 78
     2
 67
     7
 79
     5
170
     0
171
     0
290
     0
174
     0
 93
        1
 44
0.0
173
     0
291
     1
 45
0.0
1001
ACAD
1000
AcDbSavedByObjectVersion
1070
     0
  0
VISUALSTYLE
  5
33
102
{ACAD_REACTORS
330
2A
102
}
330
2A
100
AcDbVisualStyle
  2
Realistic
 70
     8
 71
     2
 72
     2
 73
     0
 90
        0
 40
-0.6
 41
-30.0
 62
     5
 63
     7
421
 16777215
 74
     1
 91
        0
 64
     7
 65
   257
 75
     1
175
     1
 42
1.0
 92
        8
 66
     8
424
  7895160
 43
1.0
 76
     1
 77
     6
 78
     2
 67
     7
 79
     5
170
     0
171
     0
290
     0
174
     0
 93
       13
 44
0.0
173
     0
291
     0
 45
0.0
1001
ACAD
1000
AcDbSavedByObjectVersion
1070
     0
  0
VISUALSTYLE
  5
37
102
{ACAD_REACTORS
330
2A
102
}
330
2A
100
AcDbVisualStyle
  2
Thicken
 70
    13
 71
     2
 72
     2
 73
     0
 90
        0
 40
-0.6
 41
-30.0
 62
     5
 63
     7
421
 16777215
 74
     1
 91
        4
 64
     7
 65
   257
 75
     1
175
     1
 42
1.0
 92
       12
 66
     7
 43
1.0
 76
     1
 77
     6
 78
     2
 67
     7
 79
     5
170
     0
171
     0
290
     0
174
     0
 93
        1
 44
0.0
173
     0
291
     1
 45
0.0
1001
ACAD
1000
AcDbSavedByObjectVersion
1070
     0
  0
ENDSEC
  0
EOF
